<svg xmlns="http://www.w3.org/2000/svg" width="1024" height="1024" viewBox="0 0 1024 1024">
<defs><radialGradient id="halo" cx="50%" cy="45%" r="65%"><stop offset="0" stop-color="#EDF4FF" stop-opacity="0.95"/><stop offset="1" stop-color="#EDF4FF" stop-opacity="0"/></radialGradient><linearGradient id="line" x1="300" y1="220" x2="730" y2="820" gradientUnits="userSpaceOnUse"><stop offset="0" stop-color="#C7D5EC"/><stop offset="1" stop-color="#AABAD3"/></linearGradient></defs>
<circle cx="512" cy="486" r="390" fill="url(#halo)"/>
<path d="M250 742 C318 638 374 638 426 742" fill="#DCE7F7" opacity="0.75"/>
<path d="M220 648 C292 668 358 716 408 788" fill="#C8D7EE" opacity="0.8"/>
<path d="M774 742 C706 638 650 638 598 742" fill="#DCE7F7" opacity="0.75"/>
<path d="M804 648 C732 668 666 716 616 788" fill="#C8D7EE" opacity="0.8"/>
<rect x="338" y="232" width="348" height="520" rx="42" fill="#FFFFFF" stroke="url(#line)" stroke-width="42"/>
<rect x="434" y="188" width="156" height="88" rx="38" fill="#AEC0DA"/>
<circle cx="512" cy="226" r="14" fill="#8297B8"/>
<path d="M420 390 H606" stroke="#D2DDEF" stroke-width="34" stroke-linecap="round"/>
<path d="M420 496 H590" stroke="#D2DDEF" stroke-width="34" stroke-linecap="round"/>
<rect x="582" y="574" width="86" height="86" rx="18" fill="#E3EBF7"/>
</svg>